<svg width="256" height="40" viewBox="0 0 256 40" fill="none" xmlns="http://www.w3.org/2000/svg">
<g id="Central Music Logo">
<path id="Vector" d="M49.8408 21.5245C49.8408 13.3044 55.2459 8.53516 61.459 8.53516C62.8423 8.54474 64.2096 8.83378 65.4801 9.38515C66.7505 9.93653 67.8983 10.739 68.8555 11.7452L65.931 15.3451C64.8125 14.1406 63.2659 13.4315 61.6297 13.3732C58.2159 13.3732 55.5873 16.3654 55.5873 21.3983C55.5873 26.4313 57.9428 29.4235 61.5386 29.4235C62.4567 29.4084 63.361 29.196 64.1911 28.8006C65.0211 28.4052 65.7579 27.8359 66.3521 27.1306L69.2879 30.6502C68.3151 31.8191 67.0946 32.7534 65.7161 33.3844C64.3376 34.0153 62.8362 34.3268 61.3224 34.2959C55.0525 34.2386 49.8408 29.8706 49.8408 21.5245Z" fill="white"/>
<path id="Vector_2" d="M70.7324 24.345C70.7324 18.2345 75.0679 14.4512 79.5627 14.4512C84.8995 14.4512 87.5281 18.3606 87.5281 23.5081C87.5304 24.339 87.4542 25.1682 87.3005 25.9845H76.0465C76.2001 27.1459 76.7892 28.204 77.6927 28.9417C78.5963 29.6793 79.7459 30.0405 80.9054 29.9512C82.3434 29.9235 83.7456 29.4949 84.9564 28.713L86.7885 32.0836C84.8283 33.4345 82.5176 34.1759 80.143 34.216C74.8062 34.2389 70.7324 30.5932 70.7324 24.345ZM82.8058 22.2814C82.8058 20.2064 81.9068 18.716 79.6879 18.716C77.9355 18.716 76.422 19.8624 76.0465 22.2814H82.8058Z" fill="white"/>
<path id="Vector_3" d="M89.8042 14.9095H94.3559L94.7314 17.34H94.8679C95.6339 16.4875 96.5606 15.797 97.5941 15.3089C98.6276 14.8208 99.7471 14.5447 100.888 14.4968C104.961 14.4968 106.702 17.3973 106.702 22.1093V33.7801H101.149V22.7742C101.149 20.0686 100.432 19.2087 98.8734 19.2087C97.4738 19.2087 96.5976 19.8737 95.4597 21.0431V33.7801H89.8042V14.9095Z" fill="white"/>
<path id="Vector_4" d="M111.403 26.913V19.3006H108.842V15.1275L111.71 14.9097L112.358 9.89966H116.91V14.9097H121.462V19.3006H116.91V26.8557C116.91 28.9881 117.877 29.8479 119.334 29.8479C119.944 29.8251 120.547 29.7052 121.12 29.4925L121.997 33.551C120.654 34.005 119.248 34.2373 117.832 34.2388C113.235 34.2388 111.403 31.2925 111.403 26.913Z" fill="white"/>
<path id="Vector_5" d="M124.352 14.91H128.904L129.302 18.2118H129.439C130.804 15.6896 132.853 14.4514 134.753 14.4514C135.53 14.407 136.307 14.5362 137.029 14.8297L136.05 19.6334C135.391 19.4459 134.71 19.3457 134.025 19.3353C132.614 19.3353 130.895 20.2525 129.894 22.7747V33.7118H124.352V14.91Z" fill="white"/>
<path id="Vector_6" d="M137.46 28.5411C137.46 24.5629 140.59 22.419 147.997 21.6624C148.018 21.2764 147.954 20.8907 147.809 20.5329C147.664 20.1751 147.442 19.8542 147.159 19.5932C146.876 19.3322 146.539 19.1378 146.172 19.0237C145.806 18.9097 145.419 18.879 145.039 18.9338C143.293 19.0612 141.608 19.6375 140.146 20.6076L138.166 16.939C140.54 15.3812 143.298 14.5198 146.131 14.4512C150.922 14.4512 153.573 17.2027 153.573 22.9922V33.7804H149.022L148.623 31.8429H148.487C147.029 33.2974 145.086 34.1518 143.036 34.2389C142.29 34.2652 141.547 34.1352 140.853 33.8571C140.16 33.579 139.531 33.1589 139.007 32.6233C138.483 32.0877 138.075 31.4483 137.808 30.7456C137.542 30.043 137.424 29.2923 137.46 28.5411ZM147.997 28.3003V24.9985C144.06 25.5374 142.774 26.6724 142.774 28.094C142.774 29.3092 143.594 29.9053 144.914 29.9053C145.512 29.8748 146.096 29.7157 146.628 29.4389C147.16 29.1621 147.627 28.7739 147.997 28.3003Z" fill="white"/>
<path id="Vector_7" d="M157.455 27.9104V7.13672H163.008V28.1397C163.008 29.2862 163.554 29.7218 164.009 29.7218C164.24 29.73 164.47 29.703 164.692 29.6416L165.352 33.7688C164.463 34.11 163.515 34.2698 162.564 34.2388C158.763 34.2388 157.455 31.7281 157.455 27.9104Z" fill="white"/>
<path id="Vector_8" d="M170.074 7.89331H174.011L178.939 21.731C179.553 23.4965 180.145 25.3194 180.759 27.1193H180.919C181.533 25.3194 182.057 23.4965 182.694 21.731L187.564 7.89331H191.501V33.7802H188.463V19.5298C188.463 17.2369 188.713 14.1644 188.873 11.8715H188.713L186.676 17.7757L181.84 31.1663H179.678L174.819 17.7757L172.782 11.8715H172.623C172.782 14.1644 173.033 17.2713 173.033 19.5298V33.7802H170.074V7.89331Z" fill="white"/>
<path id="Vector_9" d="M196.406 26.7525V14.6116H199.627V26.3398C199.627 29.9052 200.708 31.43 203.222 31.43C205.168 31.43 206.511 30.467 208.309 28.2085V14.6116H211.529V33.7803H208.878L208.605 30.7765H208.491C206.727 32.8631 204.827 34.2159 202.221 34.2159C198.181 34.2503 196.406 31.6478 196.406 26.7525Z" fill="white"/>
<path id="Vector_10" d="M215.067 31.5906L216.648 29.4582C218.184 30.8847 220.182 31.6996 222.27 31.7511C224.762 31.7511 226.002 30.4098 226.002 28.7704C226.002 26.7985 223.726 25.9271 221.655 25.1361C218.992 24.1616 215.966 22.8432 215.966 19.5987C215.966 16.5377 218.401 14.1646 222.52 14.1646C224.674 14.1979 226.756 14.9521 228.437 16.3084L226.901 18.395C225.681 17.3547 224.151 16.7536 222.554 16.6867C220.165 16.6867 219.061 17.9708 219.061 19.4382C219.061 21.2611 221.12 21.949 223.282 22.7629C226.025 23.8062 229.086 24.9297 229.086 28.5755C229.086 31.6823 226.628 34.3077 222.145 34.3077C219.548 34.2374 217.052 33.2792 215.067 31.5906Z" fill="white"/>
<path id="Vector_11" d="M232.204 8.56999C232.314 8.05768 232.594 7.5987 232.999 7.2695C233.404 6.94029 233.908 6.76074 234.428 6.76074C234.949 6.76074 235.453 6.94029 235.858 7.2695C236.263 7.5987 236.543 8.05768 236.653 8.56999C236.543 9.08231 236.263 9.54128 235.858 9.87049C235.453 10.1997 234.949 10.3792 234.428 10.3792C233.908 10.3792 233.404 10.1997 232.999 9.87049C232.594 9.54128 232.314 9.08231 232.204 8.56999ZM232.796 14.6118H236.005V33.7805H232.796V14.6118Z" fill="white"/>
<path id="Vector_12" d="M240.284 24.2189C240.284 17.8217 244.574 14.1416 249.387 14.1416C251.468 14.1443 253.465 14.9673 254.952 16.4345L253.29 18.4867C252.301 17.4497 250.95 16.8412 249.524 16.7899C246.11 16.7899 243.55 19.7821 243.55 24.1731C243.55 28.564 245.939 31.4989 249.433 31.4989C251.109 31.4524 252.711 30.7921 253.939 29.6416L255.327 31.8084C253.648 33.3574 251.459 34.227 249.182 34.2504C244.085 34.2504 240.284 30.5703 240.284 24.2189Z" fill="white"/>
<path id="Vector_13" d="M6.68446e-05 20.0458C-0.0126124 24.9588 1.77887 29.703 5.0297 33.3651C8.28053 37.0273 12.761 39.3485 17.6086 39.8822C22.4563 40.4159 27.3285 39.1242 31.2876 36.2557C35.2467 33.3873 38.0128 29.1449 39.0535 24.345H33.8191C33.6392 24.3817 33.4735 24.4692 33.3411 24.5972C32.9598 24.9871 32.6168 25.4133 32.317 25.8698C32.2333 26.0172 32.1096 26.1375 31.9605 26.2167C31.8114 26.2959 31.643 26.3306 31.475 26.3169C31.0653 26.3169 30.6443 26.3169 30.2005 26.3742V28.0939C30.5191 28.1971 30.8605 28.2888 31.1905 28.4149C31.3613 28.4773 31.5038 28.6 31.5917 28.7602C31.6796 28.9204 31.7068 29.1073 31.6684 29.2862C31.6684 29.7104 31.6684 30.146 31.2132 30.3524C30.1184 30.7986 28.8943 30.7986 27.7995 30.3524C27.6372 30.2929 27.5012 30.1772 27.4157 30.026C27.3303 29.8748 27.3009 29.6979 27.3329 29.527C27.3329 29.0913 27.2419 28.6098 27.7881 28.3805C28.1295 28.2544 28.4708 28.1512 28.8236 28.0366V26.4315L23.2023 26.6952V28.1054L23.3502 28.1741C24.5792 28.541 24.3857 28.7703 24.3402 29.8824C24.3402 30.0772 24.0216 30.3409 23.794 30.4441C22.9896 30.7635 22.0949 30.7635 21.2906 30.4441C20.6078 30.2148 20.7102 29.6531 20.6875 29.1257C20.6759 28.9275 20.7366 28.7319 20.8581 28.5757C20.9797 28.4194 21.1537 28.3133 21.3475 28.2773C21.5113 28.2114 21.6784 28.154 21.8481 28.1054V26.7296L16.3747 26.9818V28.1283L16.7389 28.2315C18.002 28.5639 17.8085 28.8505 17.763 29.848C17.763 30.0429 17.5127 30.2951 17.3192 30.3868C16.8009 30.6081 16.2436 30.7222 15.6806 30.7222C15.1176 30.7222 14.5604 30.6081 14.042 30.3868C13.4844 30.169 13.5982 29.676 13.5755 29.2403C13.5512 29.0685 13.5882 28.8936 13.6799 28.7467C13.7716 28.5998 13.912 28.4903 14.0761 28.4378C14.3834 28.3117 14.6906 28.2315 15.0206 28.1283V27.0965L8.39792 27.4175V12.7544L15.0206 13.0754V12.0436C14.6906 11.9404 14.3834 11.8601 14.0761 11.734C13.912 11.6815 13.7716 11.5721 13.6799 11.4251C13.5882 11.2782 13.5512 11.1033 13.5755 10.9315C13.5755 10.4844 13.4844 9.99141 14.042 9.78505C14.5597 9.56111 15.1172 9.44563 15.6806 9.44563C16.244 9.44563 16.8015 9.56111 17.3192 9.78505C17.5127 9.87677 17.763 10.129 17.763 10.3124C17.763 11.3213 18.002 11.6079 16.7389 11.9404L16.3747 12.0436V13.19L21.8481 13.4422V12.0665L21.3475 11.8945C21.1537 11.8585 20.9797 11.7524 20.8581 11.5962C20.7366 11.4399 20.6759 11.2443 20.6875 11.0461C20.6875 10.5073 20.6078 9.95702 21.2906 9.72773C22.0949 9.40834 22.9896 9.40834 23.794 9.72773C24.0216 9.83091 24.3288 10.0946 24.3402 10.2895C24.3402 11.4359 24.5792 11.6194 23.3502 11.9977L23.2023 12.0665V13.4766L28.8236 13.7403V12.0206C28.4708 11.906 28.1295 11.8028 27.7881 11.6767C27.2419 11.4818 27.3557 11.0003 27.3329 10.5302C27.3009 10.3593 27.3303 10.1824 27.4157 10.0312C27.5012 9.87999 27.6372 9.76431 27.7995 9.7048C28.8943 9.2586 30.1184 9.2586 31.2132 9.7048C31.7253 9.91116 31.657 10.3468 31.6684 10.771C31.7068 10.9499 31.6796 11.1368 31.5917 11.297C31.5038 11.4572 31.3613 11.5799 31.1905 11.6423L30.2005 11.9633V13.683C30.6443 13.683 31.0653 13.7518 31.475 13.683C31.643 13.6693 31.8114 13.704 31.9605 13.7832C32.1096 13.8624 32.2333 13.9827 32.317 14.1301C32.6168 14.5866 32.9598 15.0128 33.3411 15.4027C33.4764 15.5265 33.641 15.6133 33.8191 15.6549H39.0535C38.013 10.856 35.2478 6.61431 31.2899 3.74591C27.332 0.877509 22.4611 -0.414958 17.6143 0.117179C12.7675 0.649317 8.2872 2.96847 5.03546 6.62842C1.78372 10.2884 -0.00977128 15.0306 6.68446e-05 19.9426V20.0458Z" fill="white"/>
</g>
</svg>
