<svg width="21" height="20" viewBox="0 0 21 20" fill="none" xmlns="http://www.w3.org/2000/svg">
  <path d="M18.9139 0H1.11392C0.822178 0 0.542389 0.115893 0.336099 0.322183C0.129809 0.528473 0.013916 0.808262 0.013916 1.1V18.9C0.013916 19.0445 0.0423684 19.1875 0.0976486 19.321C0.152929 19.4544 0.233954 19.5757 0.336099 19.6778C0.438243 19.78 0.559506 19.861 0.692964 19.9163C0.826422 19.9715 0.969462 20 1.11392 20H10.6939V12.25H8.09392V9.25H10.6939V7C10.6401 6.47176 10.7024 5.93813 10.8766 5.43654C11.0508 4.93495 11.3327 4.47755 11.7024 4.09641C12.0721 3.71528 12.5207 3.41964 13.0167 3.23024C13.5128 3.04083 14.0443 2.96225 14.5739 3C15.3522 2.99521 16.1302 3.03528 16.9039 3.12V5.82H15.3139C14.0539 5.82 13.8139 6.42 13.8139 7.29V9.22H16.8139L16.4239 12.22H13.8139V20H18.9139C19.0584 20 19.2014 19.9715 19.3349 19.9163C19.4683 19.861 19.5896 19.78 19.6917 19.6778C19.7939 19.5757 19.8749 19.4544 19.9302 19.321C19.9855 19.1875 20.0139 19.0445 20.0139 18.9V1.1C20.0139 0.955546 19.9855 0.812506 19.9302 0.679048C19.8749 0.54559 19.7939 0.424327 19.6917 0.322183C19.5896 0.220038 19.4683 0.139013 19.3349 0.0837326C19.2014 0.0284524 19.0584 0 18.9139 0Z" fill="white"/>
</svg>
