<svg width="21" height="20" viewBox="0 0 21 20" fill="none" xmlns="http://www.w3.org/2000/svg">
  <path d="M10.0139 7.52C9.52342 7.52 9.04394 7.66545 8.6361 7.93795C8.22827 8.21046 7.9104 8.59778 7.72269 9.05095C7.53499 9.50411 7.48588 10.0028 7.58157 10.4838C7.67726 10.9649 7.91346 11.4068 8.26029 11.7536C8.60713 12.1005 9.04902 12.3367 9.53009 12.4323C10.0112 12.528 10.5098 12.4789 10.963 12.2912C11.4161 12.1035 11.8035 11.7856 12.076 11.3778C12.3485 10.97 12.4939 10.4905 12.4939 10C12.4939 9.67432 12.4298 9.35183 12.3051 9.05095C12.1805 8.75006 11.9978 8.47666 11.7675 8.24638C11.5373 8.01609 11.2639 7.83341 10.963 7.70878C10.6621 7.58415 10.3396 7.52 10.0139 7.52ZM19.9439 5.07C19.9387 4.29776 19.7965 3.53257 19.5239 2.81C19.3232 2.28126 19.0126 1.80109 18.6127 1.40119C18.2128 1.00128 17.7327 0.690718 17.2039 0.49C16.4813 0.217464 15.7162 0.0752609 14.9439 0.0699999C13.6539 -6.70552e-08 13.2739 0 10.0139 0C6.75392 0 6.37392 -6.70552e-08 5.08392 0.0699999C4.31167 0.0752609 3.54649 0.217464 2.82392 0.49C2.29518 0.690718 1.81501 1.00128 1.4151 1.40119C1.01519 1.80109 0.704634 2.28126 0.503916 2.81C0.23138 3.53257 0.0891769 4.29776 0.0839159 5.07C0.0139159 6.36 0.013916 6.74 0.013916 10C0.013916 13.26 0.0139159 13.64 0.0839159 14.93C0.0946799 15.705 0.23669 16.4725 0.503916 17.2C0.703744 17.7263 1.01404 18.2037 1.41392 18.6C1.81211 19.0023 2.29331 19.3129 2.82392 19.51C3.54649 19.7825 4.31167 19.9247 5.08392 19.93C6.37392 20 6.75392 20 10.0139 20C13.2739 20 13.6539 20 14.9439 19.93C15.7162 19.9247 16.4813 19.7825 17.2039 19.51C17.7345 19.3129 18.2157 19.0023 18.6139 18.6C19.0138 18.2037 19.3241 17.7263 19.5239 17.2C19.7962 16.4739 19.9384 15.7055 19.9439 14.93C20.0139 13.64 20.0139 13.26 20.0139 10C20.0139 6.74 20.0139 6.36 19.9439 5.07ZM17.4039 13.07C17.3718 13.6871 17.2401 14.295 17.0139 14.87C16.8198 15.3497 16.5312 15.7854 16.1653 16.1514C15.7994 16.5173 15.3636 16.8059 14.8839 17C14.3034 17.2136 13.6922 17.3318 13.0739 17.35C12.2839 17.35 12.0739 17.35 10.0139 17.35C7.95392 17.35 7.74392 17.35 6.95392 17.35C6.33565 17.3318 5.7244 17.2136 5.14392 17C4.64802 16.8157 4.20019 16.5217 3.83392 16.14C3.47158 15.7813 3.19176 15.3479 3.01392 14.87C2.79947 14.2901 2.68452 13.6782 2.67392 13.06C2.67392 12.27 2.67392 12.06 2.67392 10C2.67392 7.94 2.67392 7.73 2.67392 6.94C2.68452 6.32183 2.79947 5.70988 3.01392 5.13C3.1982 4.6341 3.49219 4.18628 3.87392 3.82C4.23425 3.45962 4.66718 3.18009 5.14392 3C5.7244 2.78641 6.33565 2.66821 6.95392 2.65C7.74392 2.65 7.95392 2.65 10.0139 2.65C12.0739 2.65 12.2839 2.65 13.0739 2.65C13.6922 2.66821 14.3034 2.78641 14.8839 3C15.3798 3.18428 15.8276 3.47827 16.1939 3.86C16.5562 4.21875 16.8361 4.65213 17.0139 5.13C17.2275 5.71049 17.3457 6.32173 17.3639 6.94C17.3639 7.73 17.3639 7.94 17.3639 10C17.3639 12.06 17.4339 12.27 17.4039 13.06V13.07ZM15.8039 5.63C15.6849 5.30698 15.4971 5.01364 15.2537 4.77021C15.0103 4.52678 14.7169 4.33906 14.3939 4.22C13.9504 4.06626 13.4833 3.99179 13.0139 4C12.2339 4 12.0139 4 10.0139 4C8.01392 4 7.79392 4 7.01392 4C6.54218 4.00461 6.07498 4.09263 5.63392 4.26C5.31585 4.37366 5.02561 4.55371 4.7825 4.7882C4.53939 5.02269 4.34898 5.30624 4.22392 5.62C4.07869 6.06537 4.00774 6.5316 4.01392 7C4.01392 7.78 4.01392 8 4.01392 10C4.01392 12 4.01392 12.22 4.01392 13C4.02383 13.4712 4.11168 13.9375 4.27392 14.38C4.39298 14.703 4.5807 14.9964 4.82413 15.2398C5.06756 15.4832 5.3609 15.6709 5.68392 15.79C6.11058 15.9469 6.55957 16.0347 7.01392 16.05C7.79392 16.05 8.01392 16.05 10.0139 16.05C12.0139 16.05 12.2339 16.05 13.0139 16.05C13.4856 16.0454 13.9528 15.9574 14.3939 15.79C14.7169 15.6709 15.0103 15.4832 15.2537 15.2398C15.4971 14.9964 15.6849 14.703 15.8039 14.38C15.9713 13.9389 16.0593 13.4717 16.0639 13C16.0639 12.22 16.0639 12 16.0639 10C16.0639 8 16.0639 7.78 16.0639 7C16.0642 6.5278 15.976 6.05972 15.8039 5.62V5.63ZM10.0139 13.82C9.51274 13.82 9.01648 13.7211 8.55358 13.529C8.09068 13.3369 7.67022 13.0554 7.3163 12.7005C6.96238 12.3457 6.68194 11.9245 6.49106 11.4611C6.30018 10.9977 6.2026 10.5012 6.20392 10C6.20392 9.24405 6.42821 8.5051 6.8484 7.87669C7.26859 7.24828 7.86579 6.75866 8.56438 6.46983C9.26298 6.181 10.0316 6.10594 10.7728 6.25415C11.5141 6.40236 12.1948 6.76717 12.7286 7.30241C13.2624 7.83764 13.6255 8.51924 13.7717 9.2609C13.918 10.0026 13.8409 10.771 13.5503 11.4688C13.2596 12.1666 12.7684 12.7625 12.1389 13.1811C11.5094 13.5996 10.7699 13.822 10.0139 13.82ZM14.0139 6.93C13.7929 6.9066 13.5883 6.80222 13.4396 6.63697C13.2909 6.47172 13.2087 6.25729 13.2087 6.035C13.2087 5.81271 13.2909 5.59828 13.4396 5.43303C13.5883 5.26778 13.7929 5.1634 14.0139 5.14C14.235 5.1634 14.4396 5.26778 14.5882 5.43303C14.7369 5.59828 14.8192 5.81271 14.8192 6.035C14.8192 6.25729 14.7369 6.47172 14.5882 6.63697C14.4396 6.80222 14.235 6.9066 14.0139 6.93Z" fill="white"/>
</svg>
