<svg width="21" height="18" viewBox="0 0 21 18" fill="none" xmlns="http://www.w3.org/2000/svg">
  <path d="M20.0139 2.80998C19.2623 3.13607 18.4673 3.35164 17.6539 3.44998C18.5121 2.9373 19.1552 2.13076 19.4639 1.17998C18.6575 1.66004 17.7747 1.99827 16.8539 2.17998C16.2385 1.51255 15.4189 1.06827 14.5237 0.916827C13.6286 0.765382 12.7085 0.915334 11.9077 1.34316C11.107 1.771 10.4708 2.45251 10.0992 3.28081C9.72746 4.10912 9.64121 5.03736 9.85392 5.91997C8.22334 5.8375 6.62836 5.41293 5.17257 4.67384C3.71678 3.93475 2.43276 2.89767 1.40392 1.62998C1.04305 2.26014 0.853435 2.9738 0.853916 3.69998C0.852636 4.37436 1.01813 5.03859 1.33567 5.63354C1.65321 6.22849 2.11293 6.73569 2.67392 7.10998C2.02189 7.09223 1.3838 6.91727 0.813916 6.59998V6.64998C0.818803 7.59487 1.14991 8.50907 1.75123 9.23794C2.35255 9.96681 3.18717 10.4656 4.11392 10.65C3.75717 10.7585 3.38679 10.8158 3.01392 10.82C2.75581 10.817 2.49834 10.7936 2.24392 10.75C2.50783 11.5628 3.01854 12.2731 3.70499 12.7821C4.39144 13.2911 5.21949 13.5735 6.07392 13.59C4.63112 14.7252 2.8498 15.3448 1.01392 15.35C0.679651 15.3511 0.345652 15.331 0.013916 15.29C1.88834 16.5002 4.07273 17.1427 6.30392 17.14C7.84361 17.156 9.37105 16.865 10.797 16.2841C12.223 15.7031 13.5189 14.8439 14.6091 13.7565C15.6993 12.6691 16.5619 11.3754 17.1465 9.95088C17.7311 8.5264 18.026 6.9997 18.0139 5.45997C18.0139 5.28997 18.0139 5.10997 18.0139 4.92998C18.7986 4.34479 19.4754 3.6274 20.0139 2.80998Z" fill="white"/>
</svg>
