<svg width="23" height="16" viewBox="0 0 23 16" fill="none" xmlns="http://www.w3.org/2000/svg">
  <path d="M22.0088 5.71731C22.0583 4.28596 21.7452 2.86533 21.0988 1.58731C20.6602 1.06291 20.0515 0.709018 19.3788 0.587308C16.5963 0.334834 13.8023 0.231352 11.0088 0.277308C8.22546 0.229267 5.44152 0.329408 2.66882 0.577308C2.12064 0.677025 1.61333 0.93415 1.20882 1.31731C0.308816 2.14731 0.208816 3.56731 0.108816 4.76731C-0.036272 6.92487 -0.036272 9.08974 0.108816 11.2473C0.137746 11.9227 0.23831 12.5931 0.408816 13.2473C0.529391 13.7524 0.773339 14.2197 1.11882 14.6073C1.52608 15.0108 2.0452 15.2825 2.60882 15.3873C4.76473 15.6534 6.93703 15.7637 9.10882 15.7173C12.6088 15.7673 15.6788 15.7173 19.3088 15.4373C19.8863 15.339 20.42 15.0669 20.8388 14.6573C21.1188 14.3772 21.3279 14.0344 21.4488 13.6573C21.8064 12.5599 21.9821 11.4114 21.9688 10.2573C22.0088 9.69731 22.0088 6.31731 22.0088 5.71731ZM8.74882 10.8573V4.66731L14.6688 7.77731C13.0088 8.69731 10.8188 9.73731 8.74882 10.8573Z" fill="white"/>
</svg>
