<svg width="15" height="18" viewBox="0 0 15 18" fill="none" xmlns="http://www.w3.org/2000/svg">
  <path fill-rule="evenodd" clip-rule="evenodd" d="M7.47577 1.15016C6.10309 1.15016 4.78662 1.69545 3.81599 2.66609C2.84536 3.63672 2.30006 4.95318 2.30006 6.32587H1.1499C1.1499 4.64814 1.81638 3.03913 3.00271 1.8528C4.18904 0.666474 5.79804 0 7.47577 0C9.15349 0 10.7625 0.666474 11.9488 1.8528C13.1352 3.03913 13.8016 4.64814 13.8016 6.32587H12.6515C12.6515 4.95318 12.1062 3.63672 11.1355 2.66609C10.1649 1.69545 8.84845 1.15016 7.47577 1.15016Z" fill="#323334"/>
    <path fill-rule="evenodd" clip-rule="evenodd" d="M0.126163 5.96581C0.180061 5.89867 0.248348 5.84449 0.325984 5.80726C0.40362 5.77003 0.488625 5.75072 0.574724 5.75073H14.3766C14.4627 5.75077 14.5476 5.77011 14.6252 5.80734C14.7028 5.84457 14.771 5.89873 14.8249 5.96584C14.8787 6.03295 14.9168 6.11129 14.9364 6.19509C14.956 6.27889 14.9565 6.36601 14.9379 6.45003L12.8377 15.9009C12.7526 16.2841 12.5395 16.6268 12.2333 16.8726C11.9272 17.1183 11.5464 17.2522 11.1539 17.2523H3.79746C3.40492 17.2522 3.02415 17.1183 2.71801 16.8726C2.41188 16.6268 2.19869 16.2841 2.11363 15.9009L0.0134474 6.45003C-0.00500603 6.3662 -0.0044607 6.27931 0.0150434 6.19572C0.0345474 6.11213 0.0725156 6.03397 0.126163 5.96696V5.96581ZM1.29127 6.90089L3.23619 15.6513C3.26446 15.7791 3.33549 15.8934 3.43755 15.9754C3.5396 16.0574 3.66656 16.1021 3.79746 16.1022H11.1539C11.2848 16.1021 11.4117 16.0574 11.5138 15.9754C11.6158 15.8934 11.6869 15.7791 11.7151 15.6513L13.6589 6.90089H1.29242H1.29127Z" fill="#323334"/>
  </svg>
