<svg width="22" height="29" viewBox="0 0 22 29" fill="none" xmlns="http://www.w3.org/2000/svg">
  <path d="M19.25 12.814H2.75C2.02065 12.814 1.32118 13.0982 0.805456 13.6041C0.289731 14.11 0 14.7962 0 15.5116V26.3023C0 27.0178 0.289731 27.704 0.805456 28.2099C1.32118 28.7158 2.02065 29 2.75 29H19.25C19.9793 29 20.6788 28.7158 21.1945 28.2099C21.7103 27.704 22 27.0178 22 26.3023V15.5116C22 14.7962 21.7103 14.11 21.1945 13.6041C20.6788 13.0982 19.9793 12.814 19.25 12.814ZM19.25 26.3023H2.75V20.907H19.25V26.3023ZM19.25 18.2093H2.75V15.5116H19.25V18.2093ZM17.875 4.72093V11.4651H15.8125V6.74419H8.085L11.4125 10.0219L9.955 11.4651L4.125 5.73256L9.955 0L11.4125 1.44326L8.085 4.72093H17.875Z" fill="#F2C94C"/>
</svg>
