<svg width="22" height="21" viewBox="0 0 22 21" fill="none" xmlns="http://www.w3.org/2000/svg">
  <path d="M11 0C4.9346 0 0 4.7103 0 10.5V14.8501C0 15.9253 0.9867 16.8 2.2 16.8H3.3C3.59174 16.8 3.87153 16.6894 4.07782 16.4925C4.28411 16.2955 4.4 16.0285 4.4 15.75V10.3498C4.4 10.0714 4.28411 9.8043 4.07782 9.60739C3.87153 9.41047 3.59174 9.29985 3.3 9.29985H2.3012C2.9128 5.23635 6.5758 2.1 11 2.1C15.4242 2.1 19.0872 5.23635 19.6988 9.29985H18.7C18.4083 9.29985 18.1285 9.41047 17.9222 9.60739C17.7159 9.8043 17.6 10.0714 17.6 10.3498V16.8C17.6 17.9581 16.6133 18.9 15.4 18.9H13.2V17.85H8.8V21H15.4C17.8266 21 19.8 19.1163 19.8 16.8C21.0133 16.8 22 15.9253 22 14.8501V10.5C22 4.7103 17.0654 0 11 0Z" fill="#F2C94C"/>
</svg>
