<svg width="21" height="20" viewBox="0 0 21 20" fill="none" xmlns="http://www.w3.org/2000/svg">
  <path d="M10.4477 7.34944C9.01922 7.34944 7.8535 8.51193 7.8535 9.93642C7.8535 11.3609 9.01922 12.5234 10.4477 12.5234C11.8761 12.5234 13.0418 11.3609 13.0418 9.93642C13.0418 8.51193 11.8761 7.34944 10.4477 7.34944ZM18.2282 9.93642C18.2282 8.86514 18.238 7.80357 18.1776 6.73423C18.1173 5.49217 17.8332 4.38983 16.9224 3.48158C16.0097 2.57138 14.9062 2.28997 13.6607 2.22981C12.5864 2.16965 11.5219 2.17935 10.4496 2.17935C9.37536 2.17935 8.31083 2.16965 7.23852 2.22981C5.99301 2.28997 4.88761 2.57332 3.97683 3.48158C3.0641 4.39177 2.78192 5.49217 2.72159 6.73423C2.66126 7.80551 2.67099 8.86708 2.67099 9.93642C2.67099 11.0058 2.66126 12.0693 2.72159 13.1386C2.78192 14.3807 3.06605 15.483 3.97683 16.3913C4.88956 17.3015 5.99301 17.5829 7.23852 17.643C8.31278 17.7032 9.3773 17.6935 10.4496 17.6935C11.5239 17.6935 12.5884 17.7032 13.6607 17.643C14.9062 17.5829 16.0116 17.2995 16.9224 16.3913C17.8351 15.4811 18.1173 14.3807 18.1776 13.1386C18.2399 12.0693 18.2282 11.0077 18.2282 9.93642ZM10.4477 13.9168C8.23883 13.9168 6.45618 12.1391 6.45618 9.93642C6.45618 7.7337 8.23883 5.956 10.4477 5.956C12.6565 5.956 14.4392 7.7337 14.4392 9.93642C14.4392 12.1391 12.6565 13.9168 10.4477 13.9168ZM14.6026 6.72258C14.0869 6.72258 13.6704 6.30727 13.6704 5.79298C13.6704 5.27869 14.0869 4.86337 14.6026 4.86337C15.1183 4.86337 15.5348 5.27869 15.5348 5.79298C15.535 5.9151 15.511 6.03605 15.4642 6.1489C15.4174 6.26176 15.3487 6.3643 15.2621 6.45065C15.1755 6.537 15.0727 6.60547 14.9595 6.65213C14.8464 6.6988 14.7251 6.72274 14.6026 6.72258Z" fill="white"/>
</svg>
