<svg width="26" height="16" viewBox="0 0 26 16" fill="none" xmlns="http://www.w3.org/2000/svg">
  <path d="M25.1333 16H0.866667C0.636812 16 0.416372 15.8946 0.253841 15.7071C0.0913092 15.5196 0 15.2652 0 15C0 14.7348 0.0913092 14.4804 0.253841 14.2929C0.416372 14.1054 0.636812 14 0.866667 14H25.1333C25.3632 14 25.5836 14.1054 25.7462 14.2929C25.9087 14.4804 26 14.7348 26 15C26 15.2652 25.9087 15.5196 25.7462 15.7071C25.5836 15.8946 25.3632 16 25.1333 16Z" fill="#323334"/>
    <path d="M25.1333 9H0.866667C0.636812 9 0.416372 8.89464 0.253841 8.70711C0.0913092 8.51957 0 8.26522 0 8C0 7.73478 0.0913092 7.48043 0.253841 7.29289C0.416372 7.10536 0.636812 7 0.866667 7H25.1333C25.3632 7 25.5836 7.10536 25.7462 7.29289C25.9087 7.48043 26 7.73478 26 8C26 8.26522 25.9087 8.51957 25.7462 8.70711C25.5836 8.89464 25.3632 9 25.1333 9Z" fill="#323334"/>
      <path d="M25.1333 2H0.866667C0.636812 2 0.416372 1.89464 0.253841 1.70711C0.0913092 1.51957 0 1.26522 0 1C0 0.734784 0.0913092 0.48043 0.253841 0.292893C0.416372 0.105357 0.636812 0 0.866667 0H25.1333C25.3632 0 25.5836 0.105357 25.7462 0.292893C25.9087 0.48043 26 0.734784 26 1C26 1.26522 25.9087 1.51957 25.7462 1.70711C25.5836 1.89464 25.3632 2 25.1333 2Z" fill="#323334"/>
    </svg>
