<svg width="30" height="22" viewBox="0 0 30 22" fill="none" xmlns="http://www.w3.org/2000/svg">
  <path d="M25.9091 5.5H21.8182V0H2.72727C1.22727 0 0 1.2375 0 2.75V17.875H2.72727C2.72727 20.1575 4.55455 22 6.81818 22C9.08182 22 10.9091 20.1575 10.9091 17.875H19.0909C19.0909 20.1575 20.9182 22 23.1818 22C25.4455 22 27.2727 20.1575 27.2727 17.875H30V11L25.9091 5.5ZM25.2273 7.5625L27.9 11H21.8182V7.5625H25.2273ZM6.81818 19.25C6.06818 19.25 5.45455 18.6313 5.45455 17.875C5.45455 17.1187 6.06818 16.5 6.81818 16.5C7.56818 16.5 8.18182 17.1187 8.18182 17.875C8.18182 18.6313 7.56818 19.25 6.81818 19.25ZM9.84546 15.125C9.09546 14.2863 8.03182 13.75 6.81818 13.75C5.60455 13.75 4.54091 14.2863 3.79091 15.125H2.72727V2.75H19.0909V15.125H9.84546ZM23.1818 19.25C22.4318 19.25 21.8182 18.6313 21.8182 17.875C21.8182 17.1187 22.4318 16.5 23.1818 16.5C23.9318 16.5 24.5455 17.1187 24.5455 17.875C24.5455 18.6313 23.9318 19.25 23.1818 19.25Z" fill="#F2C94C"/>
</svg>
