<svg width="21" height="20" viewBox="0 0 21 20" fill="none" xmlns="http://www.w3.org/2000/svg">
  <path d="M18.2874 4.93536C17.6919 5.19154 17.0438 5.37591 16.3763 5.44771C17.0693 5.03713 17.5883 4.38847 17.8359 3.62343C17.1855 4.00923 16.4731 4.27975 15.7302 4.42301C15.4197 4.09198 15.0441 3.82826 14.6269 3.64829C14.2097 3.46832 13.7599 3.37596 13.3053 3.37696C11.4662 3.37696 9.98719 4.86356 9.98719 6.68784C9.98719 6.94401 10.0183 7.20019 10.0689 7.44666C7.31518 7.30305 4.85918 5.99112 3.22639 3.98247C2.92888 4.48922 2.77297 5.06622 2.77489 5.65343C2.77489 6.80234 3.36067 7.8154 4.25394 8.4112C3.72752 8.39053 3.21343 8.24624 2.75348 7.99006V8.03082C2.75348 9.63968 3.89391 10.973 5.41382 11.2796C5.12844 11.3535 4.83487 11.3913 4.54002 11.3922C4.324 11.3922 4.11966 11.3708 3.91337 11.3417C4.33373 12.6536 5.55784 13.6065 7.01548 13.6376C5.87505 14.5284 4.4466 15.0524 2.89555 15.0524C2.61726 15.0524 2.36037 15.0427 2.09375 15.0116C3.56501 15.9529 5.31068 16.4963 7.19063 16.4963C13.2936 16.4963 16.6332 11.4543 16.6332 7.07792C16.6332 6.93431 16.6332 6.7907 16.6234 6.64708C17.2696 6.17549 17.8359 5.59133 18.2874 4.93536Z" fill="white"/>
</svg>
