<svg width="14" height="17" viewBox="0 0 14 17" fill="none" xmlns="http://www.w3.org/2000/svg">
  <path d="M7.30117 1.96302C7.95434 1.96302 8.59283 2.14671 9.13592 2.49087C9.679 2.83502 10.1023 3.32418 10.3522 3.89648C10.6022 4.46879 10.6676 5.09854 10.5402 5.70609C10.4127 6.31365 10.0982 6.87172 9.63636 7.30975C9.1745 7.74777 8.58606 8.04607 7.94545 8.16692C7.30484 8.28777 6.64082 8.22575 6.03738 7.98869C5.43393 7.75163 4.91816 7.35019 4.55528 6.83513C4.1924 6.32007 3.99872 5.71452 3.99872 5.09506C3.99872 4.26439 4.34665 3.46775 4.96598 2.88037C5.58531 2.293 6.42531 1.96302 7.30117 1.96302ZM7.30117 0.710205C6.38674 0.710205 5.49285 0.967372 4.73253 1.44919C3.97221 1.931 3.37961 2.61582 3.02967 3.41705C2.67974 4.21828 2.58818 5.09993 2.76657 5.9505C2.94497 6.80108 3.38531 7.58239 4.03191 8.19562C4.67851 8.80886 5.50233 9.22647 6.39918 9.39566C7.29604 9.56485 8.22566 9.47802 9.07048 9.14614C9.91531 8.81426 10.6374 8.25224 11.1454 7.53116C11.6534 6.81007 11.9246 5.9623 11.9246 5.09506C11.9246 3.93213 11.4375 2.81682 10.5704 1.9945C9.70337 1.17218 8.52738 0.710205 7.30117 0.710205Z" fill="#323334"/>
    <path d="M13.9061 16.5792H12.5851V13.4471C12.5851 12.6164 12.2372 11.8198 11.6179 11.2324C10.9985 10.6451 10.1585 10.3151 9.28267 10.3151H5.31973C4.44386 10.3151 3.60387 10.6451 2.98454 11.2324C2.36521 11.8198 2.01727 12.6164 2.01727 13.4471V16.5792H0.696289V13.4471C0.696289 12.2842 1.1834 11.1689 2.05046 10.3466C2.91753 9.52423 4.09352 9.06226 5.31973 9.06226H9.28267C10.5089 9.06226 11.6849 9.52423 12.5519 10.3466C13.419 11.1689 13.9061 12.2842 13.9061 13.4471V16.5792Z" fill="#323334"/>
  </svg>
